<svg width="24" height="25" viewBox="0 0 24 25" fill="none" xmlns="http://www.w3.org/2000/svg">
<path d="M23.7753 7.69346C23.7207 6.45366 23.5201 5.60132 23.2329 4.86275C22.9365 4.07877 22.4806 3.37688 21.8833 2.7934C21.2997 2.20083 20.5931 1.74038 19.818 1.44873C19.075 1.16153 18.227 0.961039 16.9869 0.906376C15.7377 0.847084 15.3411 0.833374 12.1725 0.833374C9.00395 0.833374 8.60735 0.847084 7.36269 0.901747C6.12266 0.95641 5.27015 1.15708 4.53162 1.4441C3.74732 1.74038 3.04529 2.1962 2.4617 2.7934C1.86902 3.37688 1.40866 4.0834 1.11677 4.8583C0.829514 5.60132 0.628986 6.44904 0.574313 7.68883C0.51501 8.93788 0.501297 9.33441 0.501297 12.5024C0.501297 15.6703 0.51501 16.0668 0.569683 17.3113C0.624356 18.551 0.825062 19.4034 1.11232 20.142C1.40866 20.9259 1.86902 21.6278 2.4617 22.2113C3.04529 22.8039 3.75195 23.2643 4.52699 23.556C5.27015 23.8432 6.11803 24.0437 7.35824 24.0983C8.60272 24.1532 8.9995 24.1667 12.1681 24.1667C15.3366 24.1667 15.7332 24.1532 16.9779 24.0983C18.2179 24.0437 19.0704 23.8432 19.8089 23.556C21.3774 22.9497 22.6174 21.7099 23.2238 20.142C23.5109 19.3989 23.7116 18.551 23.7662 17.3113C23.8209 16.0668 23.8346 15.6703 23.8346 12.5024C23.8346 9.33441 23.83 8.93788 23.7753 7.69346ZM21.6737 17.2201C21.6235 18.3596 21.432 18.975 21.2725 19.3852C20.8803 20.4017 20.0734 21.2085 19.0567 21.6006C18.6464 21.7601 18.0265 21.9515 16.8911 22.0016C15.6602 22.0564 15.291 22.0699 12.1771 22.0699C9.06326 22.0699 8.68945 22.0564 7.46295 22.0016C6.32319 21.9515 5.70771 21.7601 5.2974 21.6006C4.79145 21.4136 4.33091 21.1173 3.9571 20.7299C3.56958 20.3515 3.27324 19.8957 3.08625 19.3899C2.92668 18.9796 2.73524 18.3596 2.6852 17.2247C2.63034 15.994 2.61681 15.6247 2.61681 12.5114C2.61681 9.39815 2.63034 9.02442 2.6852 7.79833C2.73524 6.65878 2.92668 6.04343 3.08625 5.63319C3.27324 5.12716 3.56958 4.66689 3.96173 4.29297C4.33999 3.90553 4.7959 3.60924 5.30203 3.42246C5.71234 3.26293 6.33245 3.07152 7.46758 3.02131C8.69853 2.96665 9.06789 2.95293 12.1816 2.95293C15.3001 2.95293 15.6693 2.96665 16.8958 3.02131C18.0355 3.07152 18.651 3.26293 19.0613 3.42246C19.5673 3.60924 20.0278 3.90553 20.4016 4.29297C20.7891 4.67134 21.0855 5.12716 21.2725 5.63319C21.432 6.04343 21.6235 6.66324 21.6737 7.79833C21.7284 9.02905 21.7421 9.39815 21.7421 12.5114C21.7421 15.6247 21.7284 15.9894 21.6737 17.2201Z" fill="#E73F12"/>
<path d="M12.1727 6.50852C8.86294 6.50852 6.17753 9.19322 6.17753 12.5025C6.17753 15.8119 8.86294 18.4966 12.1727 18.4966C15.4827 18.4966 18.1679 15.8119 18.1679 12.5025C18.1679 9.19322 15.4827 6.50852 12.1727 6.50852ZM12.1727 16.3907C10.0255 16.3907 8.28379 14.6495 8.28379 12.5025C8.28379 10.3556 10.0255 8.61437 12.1727 8.61437C14.3201 8.61437 16.0616 10.3556 16.0616 12.5025C16.0616 14.6495 14.3201 16.3907 12.1727 16.3907Z" fill="#E73F12"/>
<path d="M19.8047 6.27129C19.8047 7.04405 19.178 7.67063 18.4049 7.67063C17.632 7.67063 17.0053 7.04405 17.0053 6.27129C17.0053 5.49835 17.632 4.87195 18.4049 4.87195C19.178 4.87195 19.8047 5.49835 19.8047 6.27129Z" fill="#E73F12"/>
</svg>
