<svg width="21" height="19" viewBox="0 0 21 19" fill="none" xmlns="http://www.w3.org/2000/svg">
<path d="M20.7083 2.82878C19.9575 3.1705 19.1405 3.41643 18.2989 3.51221C19.1726 2.96453 19.827 2.09927 20.1391 1.07878C19.3192 1.5934 18.4209 1.95426 17.4843 2.14535C17.0928 1.70378 16.6193 1.352 16.0933 1.11194C15.5673 0.871877 15.0001 0.748675 14.427 0.750011C12.1083 0.750011 10.2436 2.733 10.2436 5.16643C10.2436 5.50814 10.2828 5.84986 10.3466 6.17863C6.87475 5.98706 3.77827 4.23706 1.71967 1.5577C1.34457 2.23367 1.14801 3.00333 1.15043 3.78662C1.15043 5.31916 1.88897 6.6705 3.01519 7.46524C2.35149 7.43767 1.70334 7.24519 1.12344 6.90348V6.95785C1.12344 9.10393 2.56127 10.8824 4.47755 11.2914C4.11775 11.39 3.74761 11.4405 3.37587 11.4416C3.10352 11.4416 2.84589 11.4131 2.5858 11.3743C3.11579 13.1243 4.65912 14.3953 6.49689 14.4368C5.05906 15.625 3.2581 16.324 1.30255 16.324C0.951683 16.324 0.627804 16.311 0.291656 16.2696C2.1466 17.5251 4.34751 18.25 6.71772 18.25C14.4123 18.25 18.6227 11.5244 18.6227 5.68677C18.6227 5.4952 18.6227 5.30363 18.6105 5.11206C19.4251 4.483 20.1391 3.70378 20.7083 2.82878Z" fill="#E73F12"/>
</svg>
