<svg width="20" height="20" viewBox="0 0 20 20" fill="none" xmlns="http://www.w3.org/2000/svg">
<path d="M5.253 16.494L5.977 16.917C7.19794 17.6291 8.58659 18.0029 10 18C11.5822 18 13.129 17.5308 14.4446 16.6518C15.7602 15.7727 16.7855 14.5233 17.391 13.0615C17.9965 11.5997 18.155 9.99113 17.8463 8.43928C17.5376 6.88743 16.7757 5.46197 15.6569 4.34315C14.538 3.22433 13.1126 2.4624 11.5607 2.15372C10.0089 1.84504 8.40034 2.00346 6.93853 2.60896C5.47672 3.21447 4.22729 4.23984 3.34824 5.55544C2.46919 6.87103 2 8.41775 2 10C2 11.436 2.377 12.813 3.084 14.024L3.506 14.748L2.853 17.149L5.253 16.494ZM0.00399812 20L1.356 15.032C0.465136 13.5049 -0.00290589 11.768 -1.82655e-06 10C-1.82655e-06 4.477 4.477 0 10 0C15.523 0 20 4.477 20 10C20 15.523 15.523 20 10 20C8.23278 20.0029 6.49665 19.5352 4.97 18.645L0.00399812 20ZM6.391 5.308C6.525 5.298 6.66 5.298 6.794 5.304C6.848 5.308 6.902 5.314 6.956 5.32C7.115 5.338 7.29 5.435 7.349 5.569C7.647 6.245 7.937 6.926 8.217 7.609C8.279 7.761 8.242 7.956 8.124 8.146C8.04284 8.27448 7.95506 8.39865 7.861 8.518C7.748 8.663 7.505 8.929 7.505 8.929C7.505 8.929 7.406 9.047 7.444 9.194C7.458 9.25 7.504 9.331 7.546 9.399L7.605 9.494C7.861 9.921 8.205 10.354 8.625 10.762C8.745 10.878 8.862 10.997 8.988 11.108C9.456 11.521 9.986 11.858 10.558 12.108L10.563 12.11C10.648 12.147 10.691 12.167 10.815 12.22C10.877 12.246 10.941 12.269 11.006 12.286C11.0732 12.3031 11.1439 12.2999 11.2092 12.2767C11.2746 12.2536 11.3316 12.2116 11.373 12.156C12.097 11.279 12.163 11.222 12.169 11.222V11.224C12.2193 11.1771 12.2791 11.1415 12.3442 11.1196C12.4094 11.0977 12.4786 11.09 12.547 11.097C12.607 11.101 12.668 11.112 12.724 11.137C13.255 11.38 14.124 11.759 14.124 11.759L14.706 12.02C14.804 12.067 14.893 12.178 14.896 12.285C14.9 12.352 14.906 12.46 14.883 12.658C14.851 12.917 14.773 13.228 14.695 13.391C14.6416 13.5022 14.5707 13.6042 14.485 13.693C14.3841 13.7989 14.2736 13.8954 14.155 13.981C14.114 14.0119 14.0723 14.0419 14.03 14.071C13.9056 14.1499 13.7778 14.2233 13.647 14.291C13.3895 14.4278 13.1052 14.5063 12.814 14.521C12.629 14.531 12.444 14.545 12.258 14.535C12.25 14.535 11.69 14.448 11.69 14.448C10.2683 14.074 8.95339 13.3735 7.85 12.402C7.624 12.203 7.415 11.989 7.201 11.776C6.311 10.891 5.639 9.936 5.231 9.034C5.02217 8.59129 4.90936 8.1094 4.9 7.62C4.89588 7.01285 5.09435 6.42167 5.464 5.94C5.537 5.846 5.606 5.748 5.725 5.635C5.852 5.515 5.932 5.451 6.019 5.407C6.13467 5.34903 6.26086 5.31502 6.39 5.307L6.391 5.308Z" fill="#202020"/>
</svg>
