<svg width="28" height="27" viewBox="0 0 28 27" fill="none" xmlns="http://www.w3.org/2000/svg">
<path d="M18.3296 12.9871L12.8788 9.0248C12.6788 8.8798 12.4132 8.85796 12.194 8.97064C11.973 9.08245 11.835 9.30956 11.835 9.55502V17.4769C11.835 17.725 11.973 17.9512 12.194 18.0631C12.2874 18.1102 12.3896 18.1338 12.4927 18.1338C12.6272 18.1338 12.7635 18.091 12.8788 18.0063L18.3296 14.0475C18.5016 13.9208 18.6021 13.7252 18.6021 13.5173C18.603 13.3059 18.4999 13.1111 18.3296 12.9871Z" fill="#E73F12"/>
<path d="M14.0004 0.377441C6.75026 0.377441 0.875 6.2527 0.875 13.5029C0.875 20.7504 6.75026 26.6239 14.0004 26.6239C21.2489 26.6239 27.125 20.7496 27.125 13.5029C27.1259 6.2527 21.2489 0.377441 14.0004 0.377441ZM14.0004 24.434C7.9627 24.434 3.06752 19.5415 3.06752 13.5029C3.06752 7.46689 7.9627 2.56822 14.0004 2.56822C20.0373 2.56822 24.9316 7.46602 24.9316 13.5029C24.9325 19.5415 20.0373 24.434 14.0004 24.434Z" fill="#E73F12"/>
</svg>
